<mxfile host="app.diagrams.net" modified="2023-01-09T06:46:49.888Z" agent="5.0 (Windows NT 10.0; WOW64) AppleWebKit/537.36 (KHTML, like Gecko) Chrome/105.0.0.0 Safari/537.36" etag="PuHxmRPjwlXA8zVSr8iE" version="20.8.3" type="github">
  <diagram id="u3MLDT6FEJKh7IjFJ45a" name="第 1 页">
    <mxGraphModel dx="1910" dy="565" grid="1" gridSize="10" guides="1" tooltips="1" connect="1" arrows="1" fold="1" page="1" pageScale="1" pageWidth="827" pageHeight="1169" math="0" shadow="0">
      <root>
        <mxCell id="0" />
        <mxCell id="1" parent="0" />
        <mxCell id="BobIcJFzk0XD9MXeeOn0-2" value="master" style="ellipse;whiteSpace=wrap;html=1;" parent="1" vertex="1">
          <mxGeometry x="-749" y="123.25" width="80" height="33.75" as="geometry" />
        </mxCell>
        <mxCell id="BobIcJFzk0XD9MXeeOn0-3" value="tag" style="ellipse;whiteSpace=wrap;html=1;" parent="1" vertex="1">
          <mxGeometry x="-749" y="57" width="80" height="30" as="geometry" />
        </mxCell>
        <mxCell id="BobIcJFzk0XD9MXeeOn0-9" value="release" style="ellipse;whiteSpace=wrap;html=1;" parent="1" vertex="1">
          <mxGeometry x="-749" y="204.5" width="80" height="30" as="geometry" />
        </mxCell>
        <mxCell id="BobIcJFzk0XD9MXeeOn0-10" value="" style="endArrow=none;html=1;rounded=0;startArrow=none;" parent="1" source="BobIcJFzk0XD9MXeeOn0-19" edge="1">
          <mxGeometry width="50" height="50" relative="1" as="geometry">
            <mxPoint x="-669" y="217" as="sourcePoint" />
            <mxPoint x="-269" y="217" as="targetPoint" />
          </mxGeometry>
        </mxCell>
        <mxCell id="BobIcJFzk0XD9MXeeOn0-14" value="" style="endArrow=none;html=1;rounded=0;startArrow=none;" parent="1" source="BobIcJFzk0XD9MXeeOn0-18" edge="1">
          <mxGeometry width="50" height="50" relative="1" as="geometry">
            <mxPoint x="-669" y="137" as="sourcePoint" />
            <mxPoint x="-269" y="137" as="targetPoint" />
          </mxGeometry>
        </mxCell>
        <mxCell id="BobIcJFzk0XD9MXeeOn0-16" value="" style="ellipse;whiteSpace=wrap;html=1;aspect=fixed;fillColor=#e51400;strokeColor=#B20000;fontColor=#ffffff;" parent="1" vertex="1">
          <mxGeometry x="-641.5" y="604.5" width="22.5" height="22.5" as="geometry" />
        </mxCell>
        <mxCell id="BobIcJFzk0XD9MXeeOn0-17" value="" style="ellipse;whiteSpace=wrap;html=1;aspect=fixed;fillColor=#f8cecc;strokeColor=#b85450;" parent="1" vertex="1">
          <mxGeometry x="-641.5" y="487" width="22.5" height="22.5" as="geometry" />
        </mxCell>
        <mxCell id="BobIcJFzk0XD9MXeeOn0-21" value="" style="ellipse;whiteSpace=wrap;html=1;aspect=fixed;fillColor=#f8cecc;strokeColor=#b85450;" parent="1" vertex="1">
          <mxGeometry x="-536.5" y="57" width="17.5" height="17.5" as="geometry" />
        </mxCell>
        <mxCell id="BobIcJFzk0XD9MXeeOn0-28" value="" style="endArrow=none;html=1;rounded=0;" parent="1" target="BobIcJFzk0XD9MXeeOn0-27" edge="1">
          <mxGeometry width="50" height="50" relative="1" as="geometry">
            <mxPoint x="-669" y="137" as="sourcePoint" />
            <mxPoint x="-269" y="137" as="targetPoint" />
          </mxGeometry>
        </mxCell>
        <mxCell id="BobIcJFzk0XD9MXeeOn0-27" value="" style="ellipse;whiteSpace=wrap;html=1;aspect=fixed;fillColor=#008a00;strokeColor=#005700;fontColor=#ffffff;" parent="1" vertex="1">
          <mxGeometry x="-601.5" y="127" width="22.5" height="22.5" as="geometry" />
        </mxCell>
        <mxCell id="BobIcJFzk0XD9MXeeOn0-31" value="dev" style="ellipse;whiteSpace=wrap;html=1;" parent="1" vertex="1">
          <mxGeometry x="-749" y="303.25" width="80" height="30" as="geometry" />
        </mxCell>
        <mxCell id="BobIcJFzk0XD9MXeeOn0-32" value="" style="endArrow=none;html=1;rounded=0;startArrow=none;" parent="1" source="BobIcJFzk0XD9MXeeOn0-25" edge="1">
          <mxGeometry width="50" height="50" relative="1" as="geometry">
            <mxPoint x="-669" y="317" as="sourcePoint" />
            <mxPoint x="-269" y="317" as="targetPoint" />
          </mxGeometry>
        </mxCell>
        <mxCell id="BobIcJFzk0XD9MXeeOn0-35" value="场景1：新需求迭代开发" style="rounded=0;whiteSpace=wrap;html=1;" parent="1" vertex="1">
          <mxGeometry x="-719" width="130" height="40" as="geometry" />
        </mxCell>
        <mxCell id="BobIcJFzk0XD9MXeeOn0-37" value="" style="endArrow=none;html=1;rounded=0;" parent="1" target="BobIcJFzk0XD9MXeeOn0-22" edge="1">
          <mxGeometry width="50" height="50" relative="1" as="geometry">
            <mxPoint x="-669" y="317" as="sourcePoint" />
            <mxPoint x="-269" y="317" as="targetPoint" />
          </mxGeometry>
        </mxCell>
        <mxCell id="BobIcJFzk0XD9MXeeOn0-22" value="" style="ellipse;whiteSpace=wrap;html=1;aspect=fixed;fillColor=#1ba1e2;strokeColor=#006EAF;fontColor=#ffffff;" parent="1" vertex="1">
          <mxGeometry x="-601.5" y="307" width="22.5" height="22.5" as="geometry" />
        </mxCell>
        <mxCell id="BobIcJFzk0XD9MXeeOn0-40" value="" style="endArrow=block;dashed=1;endFill=0;endSize=12;html=1;rounded=0;exitX=0.5;exitY=1;exitDx=0;exitDy=0;" parent="1" source="BobIcJFzk0XD9MXeeOn0-27" target="BobIcJFzk0XD9MXeeOn0-22" edge="1">
          <mxGeometry width="160" relative="1" as="geometry">
            <mxPoint x="-579" y="247" as="sourcePoint" />
            <mxPoint x="-419" y="247" as="targetPoint" />
          </mxGeometry>
        </mxCell>
        <mxCell id="BobIcJFzk0XD9MXeeOn0-41" value="release/1.1.0" style="text;html=1;align=center;verticalAlign=middle;resizable=0;points=[];autosize=1;strokeColor=none;fillColor=none;fontStyle=1" parent="1" vertex="1">
          <mxGeometry x="-619" y="227" width="90" height="30" as="geometry" />
        </mxCell>
        <mxCell id="BobIcJFzk0XD9MXeeOn0-42" value="dev/1.1.0" style="text;html=1;align=center;verticalAlign=middle;resizable=0;points=[];autosize=1;strokeColor=none;fillColor=none;fontStyle=1" parent="1" vertex="1">
          <mxGeometry x="-599" y="329.5" width="70" height="30" as="geometry" />
        </mxCell>
        <mxCell id="BobIcJFzk0XD9MXeeOn0-44" value="" style="endArrow=none;html=1;rounded=0;startArrow=none;" parent="1" source="BobIcJFzk0XD9MXeeOn0-22" target="BobIcJFzk0XD9MXeeOn0-25" edge="1">
          <mxGeometry width="50" height="50" relative="1" as="geometry">
            <mxPoint x="-579.0000545895164" y="318.2149534410888" as="sourcePoint" />
            <mxPoint x="-269" y="317" as="targetPoint" />
          </mxGeometry>
        </mxCell>
        <mxCell id="BobIcJFzk0XD9MXeeOn0-25" value="" style="ellipse;whiteSpace=wrap;html=1;aspect=fixed;fillColor=#1ba1e2;strokeColor=#006EAF;fontColor=#ffffff;" parent="1" vertex="1">
          <mxGeometry x="-539" y="307" width="22.5" height="22.5" as="geometry" />
        </mxCell>
        <mxCell id="BobIcJFzk0XD9MXeeOn0-52" value="测试/生产发布分支" style="text;html=1;align=center;verticalAlign=middle;resizable=0;points=[];autosize=1;strokeColor=none;fillColor=none;" parent="1" vertex="1">
          <mxGeometry x="-266.5" y="200.75" width="120" height="30" as="geometry" />
        </mxCell>
        <mxCell id="BobIcJFzk0XD9MXeeOn0-53" value="开发分支" style="text;html=1;align=center;verticalAlign=middle;resizable=0;points=[];autosize=1;strokeColor=none;fillColor=none;" parent="1" vertex="1">
          <mxGeometry x="-269" y="303.25" width="70" height="30" as="geometry" />
        </mxCell>
        <mxCell id="BobIcJFzk0XD9MXeeOn0-54" value="对应线上最新版本代码" style="text;html=1;align=center;verticalAlign=middle;resizable=0;points=[];autosize=1;strokeColor=none;fillColor=none;" parent="1" vertex="1">
          <mxGeometry x="-269" y="123.25" width="140" height="30" as="geometry" />
        </mxCell>
        <mxCell id="BobIcJFzk0XD9MXeeOn0-59" value="" style="endArrow=none;dashed=1;html=1;rounded=0;" parent="1" edge="1">
          <mxGeometry width="50" height="50" relative="1" as="geometry">
            <mxPoint x="-666.5" y="75.25" as="sourcePoint" />
            <mxPoint x="-266.5" y="75.25" as="targetPoint" />
          </mxGeometry>
        </mxCell>
        <mxCell id="BobIcJFzk0XD9MXeeOn0-61" value="" style="endArrow=block;dashed=1;endFill=0;endSize=12;html=1;rounded=0;exitX=0.5;exitY=0;exitDx=0;exitDy=0;" parent="1" source="BobIcJFzk0XD9MXeeOn0-18" edge="1">
          <mxGeometry width="160" relative="1" as="geometry">
            <mxPoint x="-576.5" y="107.75" as="sourcePoint" />
            <mxPoint x="-528" y="77" as="targetPoint" />
          </mxGeometry>
        </mxCell>
        <mxCell id="BobIcJFzk0XD9MXeeOn0-63" value="对每个线上版本的master打标签" style="text;html=1;align=center;verticalAlign=middle;resizable=0;points=[];autosize=1;strokeColor=none;fillColor=none;" parent="1" vertex="1">
          <mxGeometry x="-279" y="57" width="190" height="30" as="geometry" />
        </mxCell>
        <mxCell id="BobIcJFzk0XD9MXeeOn0-66" value="" style="endArrow=block;dashed=1;endFill=0;endSize=12;html=1;rounded=0;" parent="1" edge="1">
          <mxGeometry width="160" relative="1" as="geometry">
            <mxPoint x="-569" y="137" as="sourcePoint" />
            <mxPoint x="-569" y="207" as="targetPoint" />
          </mxGeometry>
        </mxCell>
        <mxCell id="BobIcJFzk0XD9MXeeOn0-67" value="" style="endArrow=none;html=1;rounded=0;startArrow=none;" parent="1" target="BobIcJFzk0XD9MXeeOn0-26" edge="1">
          <mxGeometry width="50" height="50" relative="1" as="geometry">
            <mxPoint x="-669" y="217" as="sourcePoint" />
            <mxPoint x="-269" y="217" as="targetPoint" />
          </mxGeometry>
        </mxCell>
        <mxCell id="BobIcJFzk0XD9MXeeOn0-26" value="" style="ellipse;whiteSpace=wrap;html=1;aspect=fixed;fillColor=#0050ef;strokeColor=#001DBC;fontColor=#ffffff;" parent="1" vertex="1">
          <mxGeometry x="-579" y="208.25" width="22.5" height="22.5" as="geometry" />
        </mxCell>
        <mxCell id="BobIcJFzk0XD9MXeeOn0-70" value="" style="endArrow=none;html=1;rounded=0;startArrow=none;" parent="1" source="BobIcJFzk0XD9MXeeOn0-26" target="BobIcJFzk0XD9MXeeOn0-19" edge="1">
          <mxGeometry width="50" height="50" relative="1" as="geometry">
            <mxPoint x="-556.5002533584118" y="219.42449834468732" as="sourcePoint" />
            <mxPoint x="-269" y="217" as="targetPoint" />
          </mxGeometry>
        </mxCell>
        <mxCell id="BobIcJFzk0XD9MXeeOn0-19" value="" style="ellipse;whiteSpace=wrap;html=1;aspect=fixed;fillColor=#0050ef;strokeColor=#001DBC;fontColor=#ffffff;" parent="1" vertex="1">
          <mxGeometry x="-539" y="208.25" width="22.5" height="22.5" as="geometry" />
        </mxCell>
        <mxCell id="BobIcJFzk0XD9MXeeOn0-71" value="" style="endArrow=block;dashed=1;endFill=0;endSize=12;html=1;rounded=0;exitX=0.5;exitY=0;exitDx=0;exitDy=0;entryX=1.024;entryY=0.239;entryDx=0;entryDy=0;entryPerimeter=0;" parent="1" source="BobIcJFzk0XD9MXeeOn0-25" target="BobIcJFzk0XD9MXeeOn0-41" edge="1">
          <mxGeometry width="160" relative="1" as="geometry">
            <mxPoint x="-579" y="247" as="sourcePoint" />
            <mxPoint x="-419" y="247" as="targetPoint" />
          </mxGeometry>
        </mxCell>
        <mxCell id="BobIcJFzk0XD9MXeeOn0-72" value="" style="endArrow=block;dashed=1;endFill=0;endSize=12;html=1;rounded=0;exitX=0.5;exitY=0;exitDx=0;exitDy=0;" parent="1" source="BobIcJFzk0XD9MXeeOn0-19" edge="1">
          <mxGeometry width="160" relative="1" as="geometry">
            <mxPoint x="-579" y="247" as="sourcePoint" />
            <mxPoint x="-529" y="147" as="targetPoint" />
          </mxGeometry>
        </mxCell>
        <mxCell id="BobIcJFzk0XD9MXeeOn0-73" value="" style="endArrow=none;html=1;rounded=0;startArrow=none;" parent="1" source="BobIcJFzk0XD9MXeeOn0-27" target="BobIcJFzk0XD9MXeeOn0-18" edge="1">
          <mxGeometry width="50" height="50" relative="1" as="geometry">
            <mxPoint x="-579.0000545895164" y="138.21495344108882" as="sourcePoint" />
            <mxPoint x="-269" y="137" as="targetPoint" />
          </mxGeometry>
        </mxCell>
        <mxCell id="BobIcJFzk0XD9MXeeOn0-18" value="" style="ellipse;whiteSpace=wrap;html=1;aspect=fixed;fillColor=#008a00;strokeColor=#005700;fontColor=#ffffff;" parent="1" vertex="1">
          <mxGeometry x="-539" y="127" width="22.5" height="22.5" as="geometry" />
        </mxCell>
        <mxCell id="BobIcJFzk0XD9MXeeOn0-75" value="&lt;b&gt;master&lt;/b&gt;" style="text;html=1;align=center;verticalAlign=middle;resizable=0;points=[];autosize=1;strokeColor=none;fillColor=none;" parent="1" vertex="1">
          <mxGeometry x="-589" y="149.5" width="60" height="30" as="geometry" />
        </mxCell>
        <mxCell id="BobIcJFzk0XD9MXeeOn0-76" value="tag/1.1.0" style="text;html=1;align=center;verticalAlign=middle;resizable=0;points=[];autosize=1;strokeColor=none;fillColor=none;" parent="1" vertex="1">
          <mxGeometry x="-519" y="74.5" width="70" height="30" as="geometry" />
        </mxCell>
        <mxCell id="KTSMbRb8N_iu5CVPyep4-1" value="场景2：线上v1.0.1版本有bug需要立即修复且当前无新的开发版本分支" style="whiteSpace=wrap;html=1;" vertex="1" parent="1">
          <mxGeometry x="-719" y="420" width="379" height="37" as="geometry" />
        </mxCell>
        <mxCell id="KTSMbRb8N_iu5CVPyep4-2" value="tag" style="ellipse;whiteSpace=wrap;html=1;" vertex="1" parent="1">
          <mxGeometry x="-749" y="487" width="80" height="30" as="geometry" />
        </mxCell>
        <mxCell id="KTSMbRb8N_iu5CVPyep4-3" value="" style="endArrow=none;dashed=1;html=1;rounded=0;startArrow=none;" edge="1" parent="1" source="KTSMbRb8N_iu5CVPyep4-19">
          <mxGeometry width="50" height="50" relative="1" as="geometry">
            <mxPoint x="-666.5" y="501.5" as="sourcePoint" />
            <mxPoint x="-266.5" y="501.5" as="targetPoint" />
          </mxGeometry>
        </mxCell>
        <mxCell id="KTSMbRb8N_iu5CVPyep4-5" value="master" style="ellipse;whiteSpace=wrap;html=1;" vertex="1" parent="1">
          <mxGeometry x="-749" y="537" width="80" height="30" as="geometry" />
        </mxCell>
        <mxCell id="KTSMbRb8N_iu5CVPyep4-6" value="" style="endArrow=none;html=1;rounded=0;startArrow=none;" edge="1" parent="1" source="BobIcJFzk0XD9MXeeOn0-15">
          <mxGeometry relative="1" as="geometry">
            <mxPoint x="-670.25" y="551.5" as="sourcePoint" />
            <mxPoint x="-269" y="552" as="targetPoint" />
          </mxGeometry>
        </mxCell>
        <mxCell id="KTSMbRb8N_iu5CVPyep4-7" value="hotfix" style="ellipse;whiteSpace=wrap;html=1;" vertex="1" parent="1">
          <mxGeometry x="-749" y="597" width="80" height="30" as="geometry" />
        </mxCell>
        <mxCell id="KTSMbRb8N_iu5CVPyep4-10" value="" style="endArrow=none;html=1;rounded=0;" edge="1" parent="1" target="BobIcJFzk0XD9MXeeOn0-15">
          <mxGeometry relative="1" as="geometry">
            <mxPoint x="-670.25" y="551.5" as="sourcePoint" />
            <mxPoint x="-269" y="552" as="targetPoint" />
          </mxGeometry>
        </mxCell>
        <mxCell id="BobIcJFzk0XD9MXeeOn0-15" value="" style="ellipse;whiteSpace=wrap;html=1;aspect=fixed;fillColor=#008a00;strokeColor=#005700;fontColor=#ffffff;" parent="1" vertex="1">
          <mxGeometry x="-599" y="540.75" width="22.5" height="22.5" as="geometry" />
        </mxCell>
        <mxCell id="KTSMbRb8N_iu5CVPyep4-11" value="" style="endArrow=block;dashed=1;endFill=0;endSize=12;html=1;rounded=0;entryX=0.5;entryY=0;entryDx=0;entryDy=0;startArrow=none;exitX=0.411;exitY=1.017;exitDx=0;exitDy=0;exitPerimeter=0;" edge="1" parent="1" source="KTSMbRb8N_iu5CVPyep4-12" target="BobIcJFzk0XD9MXeeOn0-16">
          <mxGeometry width="160" relative="1" as="geometry">
            <mxPoint x="-639" y="537" as="sourcePoint" />
            <mxPoint x="-449" y="427" as="targetPoint" />
          </mxGeometry>
        </mxCell>
        <mxCell id="KTSMbRb8N_iu5CVPyep4-13" value="" style="endArrow=none;dashed=1;endFill=0;endSize=12;html=1;rounded=0;entryX=0.5;entryY=0;entryDx=0;entryDy=0;" edge="1" parent="1" target="KTSMbRb8N_iu5CVPyep4-12">
          <mxGeometry width="160" relative="1" as="geometry">
            <mxPoint x="-629" y="517" as="sourcePoint" />
            <mxPoint x="-630.25" y="604.5" as="targetPoint" />
          </mxGeometry>
        </mxCell>
        <mxCell id="KTSMbRb8N_iu5CVPyep4-12" value="tag/1.1.0" style="text;html=1;align=center;verticalAlign=middle;resizable=0;points=[];autosize=1;strokeColor=none;fillColor=none;fontStyle=1" vertex="1" parent="1">
          <mxGeometry x="-659" y="507" width="70" height="30" as="geometry" />
        </mxCell>
        <mxCell id="KTSMbRb8N_iu5CVPyep4-14" value="对应线上最新版本代码" style="text;html=1;align=center;verticalAlign=middle;resizable=0;points=[];autosize=1;strokeColor=none;fillColor=none;" vertex="1" parent="1">
          <mxGeometry x="-276.5" y="537" width="140" height="30" as="geometry" />
        </mxCell>
        <mxCell id="KTSMbRb8N_iu5CVPyep4-15" value="代码合并方向：master一&amp;gt;dev一&amp;gt;release(发布)一&amp;gt;master一tag" style="text;html=1;align=center;verticalAlign=middle;resizable=0;points=[];autosize=1;strokeColor=none;fillColor=none;" vertex="1" parent="1">
          <mxGeometry x="-764" y="359.5" width="360" height="30" as="geometry" />
        </mxCell>
        <mxCell id="KTSMbRb8N_iu5CVPyep4-16" value="热发布分支，上线发布完后合并到master" style="text;html=1;align=center;verticalAlign=middle;resizable=0;points=[];autosize=1;strokeColor=none;fillColor=none;" vertex="1" parent="1">
          <mxGeometry x="-276.5" y="600.75" width="240" height="30" as="geometry" />
        </mxCell>
        <mxCell id="KTSMbRb8N_iu5CVPyep4-17" value="" style="ellipse;whiteSpace=wrap;html=1;aspect=fixed;fillColor=#e51400;strokeColor=#B20000;fontColor=#ffffff;" vertex="1" parent="1">
          <mxGeometry x="-599" y="604.5" width="22.5" height="22.5" as="geometry" />
        </mxCell>
        <mxCell id="KTSMbRb8N_iu5CVPyep4-18" value="" style="endArrow=block;dashed=1;endFill=0;endSize=12;html=1;rounded=0;exitX=0.5;exitY=0;exitDx=0;exitDy=0;entryX=0.5;entryY=1;entryDx=0;entryDy=0;" edge="1" parent="1" source="KTSMbRb8N_iu5CVPyep4-17" target="BobIcJFzk0XD9MXeeOn0-15">
          <mxGeometry width="160" relative="1" as="geometry">
            <mxPoint x="-420" y="464" as="sourcePoint" />
            <mxPoint x="-260" y="464" as="targetPoint" />
          </mxGeometry>
        </mxCell>
        <mxCell id="KTSMbRb8N_iu5CVPyep4-20" value="" style="endArrow=none;dashed=1;html=1;rounded=0;" edge="1" parent="1" target="KTSMbRb8N_iu5CVPyep4-19">
          <mxGeometry width="50" height="50" relative="1" as="geometry">
            <mxPoint x="-666.5" y="501.5" as="sourcePoint" />
            <mxPoint x="-266.5" y="501.5" as="targetPoint" />
          </mxGeometry>
        </mxCell>
        <mxCell id="KTSMbRb8N_iu5CVPyep4-19" value="" style="ellipse;whiteSpace=wrap;html=1;aspect=fixed;fillColor=#e6d0de;strokeColor=#996185;gradientColor=#d5739d;" vertex="1" parent="1">
          <mxGeometry x="-599" y="488.75" width="22.5" height="22.5" as="geometry" />
        </mxCell>
        <mxCell id="KTSMbRb8N_iu5CVPyep4-21" value="" style="endArrow=block;dashed=1;endFill=0;endSize=12;html=1;rounded=0;exitX=0.5;exitY=0;exitDx=0;exitDy=0;entryX=1.036;entryY=0.047;entryDx=0;entryDy=0;entryPerimeter=0;" edge="1" parent="1" source="BobIcJFzk0XD9MXeeOn0-15" target="KTSMbRb8N_iu5CVPyep4-12">
          <mxGeometry width="160" relative="1" as="geometry">
            <mxPoint x="-577.75" y="614.5" as="sourcePoint" />
            <mxPoint x="-577.75" y="573.25" as="targetPoint" />
          </mxGeometry>
        </mxCell>
        <mxCell id="KTSMbRb8N_iu5CVPyep4-22" value="tag/1.1.0/hotfix1.0.0" style="text;html=1;align=center;verticalAlign=middle;resizable=0;points=[];autosize=1;strokeColor=none;fillColor=none;fontStyle=1" vertex="1" parent="1">
          <mxGeometry x="-596" y="470" width="130" height="30" as="geometry" />
        </mxCell>
        <mxCell id="KTSMbRb8N_iu5CVPyep4-23" value="热修复分支发布完后对最新的代码打标，记录版本" style="text;html=1;align=center;verticalAlign=middle;resizable=0;points=[];autosize=1;strokeColor=none;fillColor=none;" vertex="1" parent="1">
          <mxGeometry x="-277.5" y="488.75" width="290" height="30" as="geometry" />
        </mxCell>
        <mxCell id="KTSMbRb8N_iu5CVPyep4-24" value="hotfix/1.1.0" style="text;html=1;align=center;verticalAlign=middle;resizable=0;points=[];autosize=1;strokeColor=none;fillColor=none;fontStyle=1" vertex="1" parent="1">
          <mxGeometry x="-655" y="627" width="90" height="30" as="geometry" />
        </mxCell>
        <mxCell id="KTSMbRb8N_iu5CVPyep4-27" value="" style="ellipse;whiteSpace=wrap;html=1;aspect=fixed;fillColor=#e51400;strokeColor=#B20000;fontColor=#ffffff;" vertex="1" parent="1">
          <mxGeometry x="-638.5" y="900.5" width="22.5" height="22.5" as="geometry" />
        </mxCell>
        <mxCell id="KTSMbRb8N_iu5CVPyep4-28" value="" style="ellipse;whiteSpace=wrap;html=1;aspect=fixed;fillColor=#f8cecc;strokeColor=#b85450;" vertex="1" parent="1">
          <mxGeometry x="-638.5" y="783" width="22.5" height="22.5" as="geometry" />
        </mxCell>
        <mxCell id="KTSMbRb8N_iu5CVPyep4-29" value="场景3：线上v1.1.0版本有bug需要立即修复且当前存在新的开发版本分支" style="whiteSpace=wrap;html=1;" vertex="1" parent="1">
          <mxGeometry x="-719" y="720" width="396" height="30" as="geometry" />
        </mxCell>
        <mxCell id="KTSMbRb8N_iu5CVPyep4-30" value="tag" style="ellipse;whiteSpace=wrap;html=1;" vertex="1" parent="1">
          <mxGeometry x="-746" y="783" width="80" height="30" as="geometry" />
        </mxCell>
        <mxCell id="KTSMbRb8N_iu5CVPyep4-31" value="" style="endArrow=none;dashed=1;html=1;rounded=0;startArrow=none;" edge="1" parent="1" source="KTSMbRb8N_iu5CVPyep4-45">
          <mxGeometry width="50" height="50" relative="1" as="geometry">
            <mxPoint x="-663.5" y="797.5" as="sourcePoint" />
            <mxPoint x="-263.5" y="797.5" as="targetPoint" />
          </mxGeometry>
        </mxCell>
        <mxCell id="KTSMbRb8N_iu5CVPyep4-32" value="master" style="ellipse;whiteSpace=wrap;html=1;" vertex="1" parent="1">
          <mxGeometry x="-746" y="833" width="80" height="30" as="geometry" />
        </mxCell>
        <mxCell id="KTSMbRb8N_iu5CVPyep4-33" value="" style="endArrow=none;html=1;rounded=0;startArrow=none;" edge="1" parent="1" source="KTSMbRb8N_iu5CVPyep4-36">
          <mxGeometry relative="1" as="geometry">
            <mxPoint x="-667.25" y="847.5" as="sourcePoint" />
            <mxPoint x="-266" y="848" as="targetPoint" />
          </mxGeometry>
        </mxCell>
        <mxCell id="KTSMbRb8N_iu5CVPyep4-34" value="hotfix" style="ellipse;whiteSpace=wrap;html=1;" vertex="1" parent="1">
          <mxGeometry x="-746" y="893" width="80" height="30" as="geometry" />
        </mxCell>
        <mxCell id="KTSMbRb8N_iu5CVPyep4-35" value="" style="endArrow=none;html=1;rounded=0;" edge="1" parent="1" target="KTSMbRb8N_iu5CVPyep4-36">
          <mxGeometry relative="1" as="geometry">
            <mxPoint x="-667.25" y="847.5" as="sourcePoint" />
            <mxPoint x="-266" y="848" as="targetPoint" />
          </mxGeometry>
        </mxCell>
        <mxCell id="KTSMbRb8N_iu5CVPyep4-36" value="" style="ellipse;whiteSpace=wrap;html=1;aspect=fixed;fillColor=#008a00;strokeColor=#005700;fontColor=#ffffff;" vertex="1" parent="1">
          <mxGeometry x="-596" y="836.75" width="22.5" height="22.5" as="geometry" />
        </mxCell>
        <mxCell id="KTSMbRb8N_iu5CVPyep4-37" value="" style="endArrow=block;dashed=1;endFill=0;endSize=12;html=1;rounded=0;entryX=0.5;entryY=0;entryDx=0;entryDy=0;startArrow=none;exitX=0.5;exitY=1;exitDx=0;exitDy=0;" edge="1" parent="1" source="KTSMbRb8N_iu5CVPyep4-28" target="KTSMbRb8N_iu5CVPyep4-27">
          <mxGeometry width="160" relative="1" as="geometry">
            <mxPoint x="-626" y="834" as="sourcePoint" />
            <mxPoint x="-446" y="723" as="targetPoint" />
          </mxGeometry>
        </mxCell>
        <mxCell id="KTSMbRb8N_iu5CVPyep4-40" value="接收热修复分支的代码合并，&lt;br&gt;并将代码合并到迭代中的开发分支" style="text;html=1;align=left;verticalAlign=middle;resizable=0;points=[];autosize=1;strokeColor=none;fillColor=none;" vertex="1" parent="1">
          <mxGeometry x="-253.5" y="830" width="200" height="40" as="geometry" />
        </mxCell>
        <mxCell id="KTSMbRb8N_iu5CVPyep4-41" value="热发布分支，上线发布完后合并到master" style="text;html=1;align=center;verticalAlign=middle;resizable=0;points=[];autosize=1;strokeColor=none;fillColor=none;" vertex="1" parent="1">
          <mxGeometry x="-273.5" y="896.75" width="240" height="30" as="geometry" />
        </mxCell>
        <mxCell id="KTSMbRb8N_iu5CVPyep4-42" value="" style="ellipse;whiteSpace=wrap;html=1;aspect=fixed;fillColor=#e51400;strokeColor=#B20000;fontColor=#ffffff;" vertex="1" parent="1">
          <mxGeometry x="-596" y="900.5" width="22.5" height="22.5" as="geometry" />
        </mxCell>
        <mxCell id="KTSMbRb8N_iu5CVPyep4-43" value="" style="endArrow=block;dashed=1;endFill=0;endSize=12;html=1;rounded=0;exitX=0.5;exitY=0;exitDx=0;exitDy=0;entryX=0.5;entryY=1;entryDx=0;entryDy=0;" edge="1" parent="1" source="KTSMbRb8N_iu5CVPyep4-42" target="KTSMbRb8N_iu5CVPyep4-36">
          <mxGeometry width="160" relative="1" as="geometry">
            <mxPoint x="-417" y="760" as="sourcePoint" />
            <mxPoint x="-257" y="760" as="targetPoint" />
          </mxGeometry>
        </mxCell>
        <mxCell id="KTSMbRb8N_iu5CVPyep4-44" value="" style="endArrow=none;dashed=1;html=1;rounded=0;" edge="1" parent="1" target="KTSMbRb8N_iu5CVPyep4-45">
          <mxGeometry width="50" height="50" relative="1" as="geometry">
            <mxPoint x="-663.5" y="797.5" as="sourcePoint" />
            <mxPoint x="-263.5" y="797.5" as="targetPoint" />
          </mxGeometry>
        </mxCell>
        <mxCell id="KTSMbRb8N_iu5CVPyep4-45" value="" style="ellipse;whiteSpace=wrap;html=1;aspect=fixed;fillColor=#f8cecc;strokeColor=#b85450;" vertex="1" parent="1">
          <mxGeometry x="-596" y="786.75" width="22.5" height="22.5" as="geometry" />
        </mxCell>
        <mxCell id="KTSMbRb8N_iu5CVPyep4-46" value="" style="endArrow=block;dashed=1;endFill=0;endSize=12;html=1;rounded=0;exitX=0.5;exitY=0;exitDx=0;exitDy=0;" edge="1" parent="1" source="KTSMbRb8N_iu5CVPyep4-36">
          <mxGeometry width="160" relative="1" as="geometry">
            <mxPoint x="-574.75" y="910.5" as="sourcePoint" />
            <mxPoint x="-585" y="804" as="targetPoint" />
          </mxGeometry>
        </mxCell>
        <mxCell id="KTSMbRb8N_iu5CVPyep4-47" value="tag/1.1.0/hotfix110" style="text;html=1;align=center;verticalAlign=middle;resizable=0;points=[];autosize=1;strokeColor=none;fillColor=none;fontStyle=1" vertex="1" parent="1">
          <mxGeometry x="-604" y="765" width="130" height="30" as="geometry" />
        </mxCell>
        <mxCell id="KTSMbRb8N_iu5CVPyep4-48" value="热修复分支发布完后对最新的代码打标，记录版本" style="text;html=1;align=center;verticalAlign=middle;resizable=0;points=[];autosize=1;strokeColor=none;fillColor=none;" vertex="1" parent="1">
          <mxGeometry x="-279" y="786.75" width="290" height="30" as="geometry" />
        </mxCell>
        <mxCell id="KTSMbRb8N_iu5CVPyep4-49" value="hotfix/1.1.0" style="text;html=1;align=center;verticalAlign=middle;resizable=0;points=[];autosize=1;strokeColor=none;fillColor=none;fontStyle=1" vertex="1" parent="1">
          <mxGeometry x="-604" y="923" width="90" height="30" as="geometry" />
        </mxCell>
        <mxCell id="KTSMbRb8N_iu5CVPyep4-50" value="代码合并方向：tag一&amp;gt;hotfix(发布)一&amp;gt;master一&amp;gt;tag" style="text;html=1;align=center;verticalAlign=middle;resizable=0;points=[];autosize=1;strokeColor=none;fillColor=none;" vertex="1" parent="1">
          <mxGeometry x="-760" y="650" width="300" height="30" as="geometry" />
        </mxCell>
        <mxCell id="KTSMbRb8N_iu5CVPyep4-51" value="dev" style="ellipse;whiteSpace=wrap;html=1;" vertex="1" parent="1">
          <mxGeometry x="-749" y="953" width="80" height="30" as="geometry" />
        </mxCell>
        <mxCell id="KTSMbRb8N_iu5CVPyep4-52" value="" style="endArrow=none;html=1;rounded=0;startArrow=none;" edge="1" parent="1" source="KTSMbRb8N_iu5CVPyep4-54">
          <mxGeometry relative="1" as="geometry">
            <mxPoint x="-666" y="967.5" as="sourcePoint" />
            <mxPoint x="-260" y="968" as="targetPoint" />
          </mxGeometry>
        </mxCell>
        <mxCell id="KTSMbRb8N_iu5CVPyep4-55" value="" style="endArrow=none;html=1;rounded=0;startArrow=none;" edge="1" parent="1" target="KTSMbRb8N_iu5CVPyep4-54">
          <mxGeometry relative="1" as="geometry">
            <mxPoint x="-666" y="967.5" as="sourcePoint" />
            <mxPoint x="-260" y="968" as="targetPoint" />
          </mxGeometry>
        </mxCell>
        <mxCell id="KTSMbRb8N_iu5CVPyep4-54" value="" style="ellipse;whiteSpace=wrap;html=1;aspect=fixed;fillColor=#1ba1e2;strokeColor=#006EAF;fontColor=#ffffff;" vertex="1" parent="1">
          <mxGeometry x="-516" y="956.75" width="22.5" height="22.5" as="geometry" />
        </mxCell>
        <mxCell id="KTSMbRb8N_iu5CVPyep4-56" value="" style="endArrow=block;dashed=1;endFill=0;endSize=12;html=1;rounded=0;entryX=0.5;entryY=0;entryDx=0;entryDy=0;" edge="1" parent="1" target="KTSMbRb8N_iu5CVPyep4-54">
          <mxGeometry width="160" relative="1" as="geometry">
            <mxPoint x="-505" y="850" as="sourcePoint" />
            <mxPoint x="-260" y="1083" as="targetPoint" />
          </mxGeometry>
        </mxCell>
        <mxCell id="KTSMbRb8N_iu5CVPyep4-58" value="dev/1.2.0" style="text;html=1;align=center;verticalAlign=middle;resizable=0;points=[];autosize=1;strokeColor=none;fillColor=none;fontStyle=1" vertex="1" parent="1">
          <mxGeometry x="-584" y="970" width="70" height="30" as="geometry" />
        </mxCell>
        <mxCell id="KTSMbRb8N_iu5CVPyep4-60" value="release" style="ellipse;whiteSpace=wrap;html=1;" vertex="1" parent="1">
          <mxGeometry x="-749" y="1013" width="80" height="30" as="geometry" />
        </mxCell>
        <mxCell id="KTSMbRb8N_iu5CVPyep4-61" value="" style="endArrow=none;html=1;rounded=0;startArrow=none;" edge="1" parent="1" source="BobIcJFzk0XD9MXeeOn0-20">
          <mxGeometry relative="1" as="geometry">
            <mxPoint x="-662.75" y="1027.5" as="sourcePoint" />
            <mxPoint x="-270" y="1028" as="targetPoint" />
          </mxGeometry>
        </mxCell>
        <mxCell id="KTSMbRb8N_iu5CVPyep4-62" value="" style="endArrow=block;dashed=1;endFill=0;endSize=12;html=1;rounded=0;" edge="1" parent="1">
          <mxGeometry width="160" relative="1" as="geometry">
            <mxPoint x="-460" y="970" as="sourcePoint" />
            <mxPoint x="-460" y="1010" as="targetPoint" />
          </mxGeometry>
        </mxCell>
        <mxCell id="KTSMbRb8N_iu5CVPyep4-64" value="" style="endArrow=none;html=1;rounded=0;startArrow=none;" edge="1" parent="1" target="BobIcJFzk0XD9MXeeOn0-20">
          <mxGeometry relative="1" as="geometry">
            <mxPoint x="-662.75" y="1027.5" as="sourcePoint" />
            <mxPoint x="-270" y="1028" as="targetPoint" />
          </mxGeometry>
        </mxCell>
        <mxCell id="BobIcJFzk0XD9MXeeOn0-20" value="" style="ellipse;whiteSpace=wrap;html=1;aspect=fixed;fillColor=#0050ef;strokeColor=#001DBC;fontColor=#ffffff;" parent="1" vertex="1">
          <mxGeometry x="-471.5" y="1016.75" width="22.5" height="22.5" as="geometry" />
        </mxCell>
        <mxCell id="KTSMbRb8N_iu5CVPyep4-67" value="release/1.2.0" style="text;html=1;align=center;verticalAlign=middle;resizable=0;points=[];autosize=1;strokeColor=none;fillColor=none;fontStyle=1" vertex="1" parent="1">
          <mxGeometry x="-505.25" y="1039.25" width="90" height="30" as="geometry" />
        </mxCell>
        <mxCell id="KTSMbRb8N_iu5CVPyep4-68" value="正在迭代的开发分支：&lt;br&gt;接收热修复分支的代码合并，并将代码合并到release" style="text;html=1;align=left;verticalAlign=middle;resizable=0;points=[];autosize=1;strokeColor=none;fillColor=none;" vertex="1" parent="1">
          <mxGeometry x="-253.5" y="948" width="300" height="40" as="geometry" />
        </mxCell>
        <mxCell id="KTSMbRb8N_iu5CVPyep4-69" value="正在迭代的发布分支：&lt;br&gt;接收dev分支中热修复的代码合并，并发布进行回归测试" style="text;html=1;align=left;verticalAlign=middle;resizable=0;points=[];autosize=1;strokeColor=none;fillColor=none;" vertex="1" parent="1">
          <mxGeometry x="-260" y="1003" width="320" height="40" as="geometry" />
        </mxCell>
        <mxCell id="KTSMbRb8N_iu5CVPyep4-70" value="tag/1.1.0" style="text;html=1;align=center;verticalAlign=middle;resizable=0;points=[];autosize=1;strokeColor=none;fillColor=none;fontStyle=1" vertex="1" parent="1">
          <mxGeometry x="-685" y="795" width="70" height="30" as="geometry" />
        </mxCell>
        <mxCell id="KTSMbRb8N_iu5CVPyep4-71" value="代码合并方向：tag一&amp;gt;hotfix(发布)一&amp;gt;master一&amp;gt;dev一&amp;gt;release" style="text;html=1;align=center;verticalAlign=middle;resizable=0;points=[];autosize=1;strokeColor=none;fillColor=none;" vertex="1" parent="1">
          <mxGeometry x="-744" y="1069.25" width="360" height="30" as="geometry" />
        </mxCell>
        <mxCell id="KTSMbRb8N_iu5CVPyep4-75" value="" style="edgeStyle=orthogonalEdgeStyle;rounded=0;orthogonalLoop=1;jettySize=auto;html=1;exitX=0.639;exitY=1.124;exitDx=0;exitDy=0;exitPerimeter=0;" edge="1" parent="1" source="KTSMbRb8N_iu5CVPyep4-71">
          <mxGeometry relative="1" as="geometry">
            <mxPoint x="-514" y="1130" as="sourcePoint" />
            <mxPoint x="-514" y="1130" as="targetPoint" />
          </mxGeometry>
        </mxCell>
        <mxCell id="KTSMbRb8N_iu5CVPyep4-74" value="tag" style="text;html=1;align=center;verticalAlign=middle;resizable=0;points=[];autosize=1;strokeColor=none;fillColor=none;" vertex="1" parent="1">
          <mxGeometry x="-533.5" y="1130" width="40" height="30" as="geometry" />
        </mxCell>
        <mxCell id="KTSMbRb8N_iu5CVPyep4-76" value="master" style="text;html=1;align=center;verticalAlign=middle;resizable=0;points=[];autosize=1;strokeColor=none;fillColor=none;fontStyle=1" vertex="1" parent="1">
          <mxGeometry x="-589" y="850" width="60" height="30" as="geometry" />
        </mxCell>
        <mxCell id="KTSMbRb8N_iu5CVPyep4-77" value="master" style="text;html=1;align=center;verticalAlign=middle;resizable=0;points=[];autosize=1;strokeColor=none;fillColor=none;fontStyle=1" vertex="1" parent="1">
          <mxGeometry x="-589" y="550" width="60" height="30" as="geometry" />
        </mxCell>
      </root>
    </mxGraphModel>
  </diagram>
</mxfile>
